<?xml version="1.0" standalone="no"?><!DOCTYPE svg PUBLIC "-//W3C//DTD SVG 1.1//EN" "http://www.w3.org/Graphics/SVG/1.1/DTD/svg11.dtd"><svg t="1666324412411" class="icon" viewBox="0 0 1024 1024" version="1.1" xmlns="http://www.w3.org/2000/svg" p-id="9350" xmlns:xlink="http://www.w3.org/1999/xlink" width="200" height="200"><path d="M934.3 907.3h-77.2V783c0-13.8-11.2-25-25-25s-25 11.2-25 25v124.3H697.9V785.9c0-13.8-11.2-25-25-25s-25 11.2-25 25v121.4H616V742.7c0-13.8-11.2-25-25-25s-25 11.2-25 25v164.6H456.7V291.8c0-14.7 8.9-25 16.8-25h75.6c8 0 16.8 10.3 16.8 25v2.8c0 13.8 11.2 25 25 25s25-11.2 25-25v-2.8c0-41.4-30-75-66.8-75h-75.6c-36.9 0-66.8 33.6-66.8 75v615.5h-31.8V140.9c0-41.4-30-75-66.8-75h-75.6c-36.9 0-66.8 33.6-66.8 75v766.4H89.2c-13.8 0-25 11.2-25 25s11.2 25 25 25h845.1c13.8 0 25-11.2 25-25s-11.2-25-25-25zM215.6 140.9c0-14.7 8.9-25 16.8-25H308c8 0 16.8 10.3 16.8 25v766.4H215.6V140.9z" p-id="9351" fill="#2c2c2c"></path><path d="M960.4 725l-71.2-71.2c42.9-39 69.8-95.2 69.8-157.6C959 378.6 863.3 283 745.8 283s-213.2 95.7-213.2 213.2 95.7 213.2 213.2 213.2c37 0 71.8-9.5 102.2-26.1l77.1 77.1c9.8 9.8 25.6 9.8 35.4 0 9.6-9.8 9.6-25.6-0.1-35.4zM582.5 496.2c0-90 73.2-163.2 163.2-163.2S909 406.2 909 496.2s-73.2 163.2-163.2 163.2-163.3-73.2-163.3-163.2z" p-id="9352" fill="#2c2c2c"></path></svg>