<?xml version="1.0" standalone="no"?><!DOCTYPE svg PUBLIC "-//W3C//DTD SVG 1.1//EN" "http://www.w3.org/Graphics/SVG/1.1/DTD/svg11.dtd"><svg t="1666324310153" class="icon" viewBox="0 0 1024 1024" version="1.1" xmlns="http://www.w3.org/2000/svg" p-id="7494" xmlns:xlink="http://www.w3.org/1999/xlink" width="200" height="200"><path d="M597.598547 342.943277l-62.534931 62.661366c-20.077936 20.117672-52.676584 20.139347-72.779807 0.043349l-62.726389-62.704715a26.905445 26.905445 0 0 1 0-38.064269 26.92712 26.92712 0 0 1 38.075106 0l34.000275 33.985825V211.396313a26.919895 26.919895 0 0 1 26.923508-26.916282 26.919895 26.919895 0 0 1 26.923507 26.916282v127.472133l33.996663-33.985826a26.92712 26.92712 0 0 1 38.075106 0l0.021674 0.021675a26.901833 26.901833 0 0 1 0.025288 38.038982z" p-id="7495" fill="#2c2c2c"></path><path d="M795.885319 531.852158c-13.61167-43.627425-26.486402-84.823678-39.942737-126.518448-2.062703-6.36873-9.251456-11.574254-15.305904-13.423823a27412.74714 27412.74714 0 0 0-130.318734-39.317786 43.168645 43.168645 0 0 1-1.4811 1.560574l-22.548844 22.592193 113.849625 32.396352-24.109417 15.562387c-34.151998 22.064777-69.441913 44.870104-104.468121 66.801221-3.251195 2.033803-9.569351 2.774353-13.824804 1.611148-3.832798-1.058445-7.958203-1.983229-11.949948-2.879114-11.711527-2.615406-24.954728-5.573993-29.871257-12.101671-4.017032-5.364472-2.987487-16.754492-1.983229-27.747143 0.476842-5.259711 0.950071-10.64947 0.924784-15.775521a67.361149 67.361149 0 0 1-16.176502 1.95433h-0.025287c-6.213395 0-12.318417-0.845311-18.134443-2.485358v34.643289l-141.314998-35.409126 84.773104-43.522665-22.205662-22.194824a11944.818302 11944.818302 0 0 0-112.000057 58.98029c-8.062964 4.28074-15.728559 12.867507-19.536069 21.851643-10.07148 23.834872-19.481883 48.356107-28.574392 72.086219-2.723779 7.08038-5.443945 14.164373-8.193012 21.244753-3.886984 10.013681-7.640308 20.081548-11.498393 30.308363-1.719521 4.598635-3.464329 9.222557-5.209137 13.900665l-2.460071 6.527677 6.636051 2.087989c4.970716 1.585861 9.778872 3.171721 14.48588 4.703396 11.180498 3.67385 21.754107 7.134567 32.620323 9.988394 4.862343 1.267966 5.498132 2.138564 5.364472 7.159854-0.476842 19.340998-0.292608 38.790369-0.054187 57.022348 0.263708 21.114706 10.17624 35.513887 28.679153 41.669483a115817.840848 115817.840848 0 0 0 194.341989 64.236389l57.148784 18.867768c5.05019 1.665334 9.966719 2.510645 14.699014 2.510646 9.858346 0 18.979754-3.644951 27.226952-10.887891 28.046976-24.625996 56.675554-49.5446 84.375736-73.67208 17.975496-15.641861 35.950992-31.287334 53.897589-46.954481 13.799517-12.076383 20.749849-27.902478 20.670376-47.113428-0.079474-18.997816-0.079474-37.627164 0.025287-55.385914 0-1.531674 0.104761-3.092248 0.263708-4.782869l54.98132 14.030713-13.777842-44.125942zM257.111728 571.433651l44.461898-114.521538 241.394007 70.052415-32.591424 123.032445-253.264481-78.563322z m296.772695 189.201489c-1.004258-0.292608-1.983229-0.556316-2.9333-0.870598-21.86248-7.239328-43.721348-14.507555-65.583829-21.772169-56.332373-18.734108-114.564888-38.104006-171.926806-56.838114-6.448203-2.08799-7.611409-3.699137-7.347701-10.172628 0.502129-13.001168 0.397368-26.05291 0.288996-39.874101 0-3.142822-0.025287-6.314543-0.054187-9.565738l226.882839 69.944042 20.670376-77.609638v146.758944z m166.797143-135.744617c-0.025287 3.699137-2.113277 8.720428-4.548061 10.967364-35.922093 33.082716-72.797869 66.403852-108.430967 98.61597l-20.406667 18.470401-0.025287-22.884801c-0.054187-65.399594-0.104761-132.995551 0.288995-199.478877 0.025287-3.435429 2.380597-8.323059 4.150692-9.486265 36.160514-23.730111 73.249424-47.377137 109.14623-70.23665l20.088773-12.816933v0.791124l0.025287 31.760563c0.0289 50.584982 0.079474 102.903935-0.288995 154.298104z" p-id="7496" fill="#2c2c2c"></path><path d="M787.450274 170.853911a63.145432 63.123758 0 1 0 126.290865 0 63.145432 63.123758 0 1 0-126.290865 0Z" p-id="7497" fill="#2c2c2c"></path><path d="M680.988087 28.415445A515.245776 515.245776 0 0 0 512.167978 0c-137.417177 0.003612-266.211462 53.092015-362.634681 149.482723C53.106465 245.869818 0 374.530443 0 511.759773c0 137.619473 53.106465 266.366797 149.533297 362.761117 96.419607 96.39432 225.21028 149.475498 362.641906 149.475498 137.384665 0.057799 266.175337-53.030603 362.656356-149.482723 94.804847-94.761498 149.172053-227.276595 149.164829-363.559466-0.003612-57.372755-9.439303-113.752089-28.036139-167.566592-4.663659-13.488847-15.724947-23.451954-29.5931-26.641737a40.484603 40.484603 0 0 0-37.916159 10.880666c-11.111862 11.104637-14.771263 27.367837-9.544063 42.42087 53.893976 155.674443 13.915115 331.007779-101.841878 446.728647-81.149828 81.113704-189.429072 125.759836-304.904295 125.709263-115.496897 0-223.772529-44.646133-304.868171-125.70565-81.092029-81.070354-125.756224-189.313474-125.756224-304.785085 0-115.525797 44.660582-223.70028 125.756224-304.767022 81.095641-81.063129 189.371273-125.709262 304.879008-125.709262a433.398748 433.398748 0 0 1 142.283132 24.001044c14.666502 5.089926 31.211472 1.311315 42.15355-9.630762 10.082317-10.248489 14.048775-24.311714 10.93124-37.934221a40.784435 40.784435 0 0 0-26.551426-29.538913z" p-id="7498" fill="#2c2c2c"></path></svg>