<?xml version="1.0" standalone="no"?><!DOCTYPE svg PUBLIC "-//W3C//DTD SVG 1.1//EN" "http://www.w3.org/Graphics/SVG/1.1/DTD/svg11.dtd"><svg t="1667623173770" class="icon" viewBox="0 0 1024 1024" version="1.1" xmlns="http://www.w3.org/2000/svg" p-id="2021" xmlns:xlink="http://www.w3.org/1999/xlink" width="200" height="200"><path d="M256 128C185.813333 128 128 185.813333 128 256c0 55.168 35.968 102.186667 85.333333 120.021333V554.666667h85.333334V375.978667C348.032 358.229333 384 311.168 384 256c0-70.186667-57.813333-128-128-128z m512 0a128 128 0 0 0-120.490667 85.333333H469.333333v85.333334h178.090667a128 128 0 0 0 211.072 47.829333A128 128 0 0 0 768 128zM256 213.333333c24.064 0 42.666667 18.602667 42.666667 42.666667 0 24.064-18.602667 42.666667-42.666667 42.666667-24.064 0-42.666667-18.602667-42.666667-42.666667 0-24.064 18.602667-42.666667 42.666667-42.666667z m469.333333 256v170.666667l-97.834666 97.834667a42.666667 42.666667 0 0 0 0 60.330666l110.336 110.336a42.624 42.624 0 0 0 60.330666 0l110.336-110.336a42.624 42.624 0 0 0 0-60.330666L810.666667 640v-170.666667h-85.333334zM170.666667 640a42.666667 42.666667 0 0 0-42.666667 42.666667v170.666666a42.666667 42.666667 0 0 0 42.666667 42.666667h170.666666a42.666667 42.666667 0 0 0 42.666667-42.666667v-170.666666a42.666667 42.666667 0 0 0-42.666667-42.666667H170.666667z" p-id="2022"></path></svg>