<?xml version="1.0" standalone="no"?><!DOCTYPE svg PUBLIC "-//W3C//DTD SVG 1.1//EN" "http://www.w3.org/Graphics/SVG/1.1/DTD/svg11.dtd"><svg t="1667623257196" class="icon" viewBox="0 0 1024 1024" version="1.1" xmlns="http://www.w3.org/2000/svg" p-id="2193" xmlns:xlink="http://www.w3.org/1999/xlink" width="200" height="200"><path d="M512 227.555556a170.666667 170.666667 0 1 0 0 341.333333 170.666667 170.666667 0 0 0 0-341.333333z m0 227.555555a56.888889 56.888889 0 1 1 0-113.777778 56.888889 56.888889 0 0 1 0 113.777778z" fill="#1E2330" p-id="2194"></path><path d="M1024 199.111111v-113.777778A85.333333 85.333333 0 0 0 938.666667 0h-113.777778c-37.148444 0-68.380444 23.779556-80.099556 56.888889H279.210667C267.491556 23.779556 236.202667 0 199.111111 0h-113.777778A85.333333 85.333333 0 0 0 0 85.333333v113.777778c0 37.148444 23.779556 68.380444 56.888889 80.099556v465.521777c-33.109333 11.719111-56.888889 43.008-56.888889 80.099556v113.777778A85.333333 85.333333 0 0 0 85.333333 1024h113.777778c37.091556 0 68.323556-23.836444 80.099556-56.888889H744.789333c11.776 33.052444 43.008 56.888889 80.099556 56.888889h113.777778a85.333333 85.333333 0 0 0 85.333333-85.333333v-113.777778c0-37.148444-23.779556-68.380444-56.888889-80.099556V279.210667c33.109333-11.719111 56.888889-42.951111 56.888889-80.099556zM512 625.777778a341.219556 341.219556 0 0 0-321.479111 227.555555H170.666667V170.666667h682.666666v682.666666h-19.854222A341.105778 341.105778 0 0 0 512 625.777778z m-195.982222 227.555555c39.424-67.754667 111.957333-113.777778 195.982222-113.777777 84.024889 0 156.558222 46.023111 195.982222 113.777777h-391.964444z" fill="#1E2330" p-id="2195"></path></svg>