<?xml version="1.0" standalone="no"?><!DOCTYPE svg PUBLIC "-//W3C//DTD SVG 1.1//EN" "http://www.w3.org/Graphics/SVG/1.1/DTD/svg11.dtd"><svg t="1666322421942" class="icon" viewBox="0 0 1365 1024" version="1.1" xmlns="http://www.w3.org/2000/svg" p-id="6215" width="266.6015625" height="200" xmlns:xlink="http://www.w3.org/1999/xlink"><path d="M900.779732 567.022744c45.329052 0 93.730102 41.19892 119.022893 100.420234l156.228215 313.958295c10.17173 18.090661 5.119998 36.625054-11.468796 41.437853a30.20799 30.20799 0 0 1-8.396797 1.160533H228.762889c-18.670927 0-29.218124-15.155195-23.586125-33.860256a43.690652 43.690652 0 0 1 3.754665-8.73813l156.194081-313.958295c25.292792-59.221314 73.693842-100.420233 119.022894-100.420234H900.779732z m-353.040949-54.749848c29.047457 0 59.69918 21.503993 80.793573 54.681582l-180.94074 0.068266c-43.451719 0-89.70237 37.819721-115.711961 93.115703l-3.310933 7.304531-101.478366 203.878332H19.730425c-14.677328 0-22.971726-11.878396-18.534393-26.589858 0.682666-2.321066 1.706666-4.607998 2.935465-6.826665l122.743426-246.715651c19.865593-46.523718 57.890114-78.91624 93.525302-78.91624h327.338558z m596.787001 0c35.601055 0 73.625575 32.392523 93.525302 78.91624l122.709292 246.681518c8.021331 14.199462 4.061865 28.77439-8.977063 32.563189a23.722659 23.722659 0 0 1-6.621865 0.9216h-187.391937l-101.375966-203.912465c-24.234659-56.763714-69.700243-96.938634-113.356763-100.215434l-5.700264-0.2048-200.942867-0.068266c21.094393-33.143456 51.746116-54.681582 80.793573-54.681582h327.338558zM692.464068 0a253.883649 253.883649 0 1 1 0 507.767297 253.883649 253.883649 0 0 1 0-507.767297z m-308.394564 66.764778c29.49119 0 57.446381 6.382931 82.636772 17.88586a252.723116 252.723116 0 0 0-64.682645 169.233011c0 73.318376 31.061323 139.366354 80.75944 185.685271a199.475134 199.475134 0 1 1-98.713567-372.838276z m596.787001 0a199.475134 199.475134 0 1 1-86.152505 379.46014 253.200982 253.200982 0 0 0 88.234638-192.341269c0-67.925311-26.692258-129.638357-70.143977-175.206342a199.167934 199.167934 0 0 1 68.061844-11.912529z" fill="#2c2c2c" p-id="6216"></path></svg>